#format: frame checksums
#version: 1
#hash: MD5
#tb 0: 1/25
#stream#, dts,        pts, duration,     size, hash
0,          0,          0,        1,   144508, 83af3948090ebb44a0091815e4edc61e
0,          1,          1,        1,   144496, 950742e357ee489fcda4f783b8df3b4c
0,          2,          2,        1,   144376, 4b818cf0a50e9338fea26101073e445e
0,          3,          3,        1,   144420, 0335c3b97dca65e9118a12e3cceb1e24
0,          4,          4,        1,   144588, a9f7e6cb2d9129d97342c4eb67349aa8
0,          5,          5,        1,   144444, b956115c6bab18a01594103bcb2ba9e0
0,          6,          6,        1,   144408, 81761b3135ab3f4d5efd6f2790b6b70f
0,          7,          7,        1,   144408, 566c53ee4126e31b78f6572292f97f55
0,          8,          8,        1,   144320, 0c24c346a65cb945f8d804817f67f42e
0,          9,          9,        1,   144316, 7920264636a6933c776b41567181f2d9
0,         10,         10,        1,   144248, c1c1b10356f27fca35e03fdc67dd1638
0,         11,         11,        1,   144168, 5a590c4f603aaddd01d4efbf5571426e
0,         12,         12,        1,   144452, 10459aa8f48f7e8e0ebc03f15f795acd
0,         13,         13,        1,   144312, 436658612212e706c4ed9f4bdcf45f38
0,         14,         14,        1,   144252, 7a5612c485c501669e27039c435ac5d3
0,         15,         15,        1,   144232, 81018c3b49d376d69af71a4ee2c910a9
0,         16,         16,        1,   144312, 4280abfc59ee6cfddbf45474a42c5cd5
0,         17,         17,        1,   144348, 0a48ba8ad15f7431830feeb2ac0f2118
0,         18,         18,        1,   144356, 6c8f0a396195a840a225aca3ada427ff
0,         19,         19,        1,   144360, 4a0a959d9c3ebb293d94ef37b4f7f19e
0,         20,         20,        1,   144380, e61b564126a2d8255a7457b70af74514
0,         21,         21,        1,   144416, fe434ae640e63fb774d6e7c864d02e49
0,         22,         22,        1,   144344, 9e106257c640b66ca31919668c4da334
0,         23,         23,        1,   144376, c0cdd6b2aa1bf4d89c82b602f09fa2e0
0,         24,         24,        1,   144376, 8be60289a2a4c22355b3bd43f2f85fe4
0,         25,         25,        1,   144320, 124127b8fcacfa5c5e0ee7f0324da7a0
0,         26,         26,        1,   144408, a5639aedbdbfff34f36dda8872992cde
0,         27,         27,        1,   144516, fbe3cf39fd764e6a3d05c63be35a4d58
0,         28,         28,        1,   144676, 6ee82422712e11740d7b003eab69d5bd
0,         29,         29,        1,   144648, e5f446835709b1baaca14af3aa6fbbb7
0,         30,         30,        1,   144496, 3b23fb07c528ad824e9c8f10143ae06a
0,         31,         31,        1,   144496, 4e4dddd0c72f9d3a555b8d32ae82c10e
0,         32,         32,        1,   144372, 1dfe88fbe0c1193bb04a06840dfab155
0,         33,         33,        1,   144168, e03b3d67fcbbde71c6985955feebabfe
0,         34,         34,        1,   144180, 5d5a24b49cff98cbb85f69b547b43e87
0,         35,         35,        1,   144348, bb9172de1a4c7a00fe80bb673484781b
0,         36,         36,        1,   144544, 7824a6c4bb8b919306904be6f67f2736
0,         37,         37,        1,   144516, 456c3884817909b4cca38f8138c079d4
0,         38,         38,        1,   144532, 0e63cf833a33a9fac9e5969342817fc2
0,         39,         39,        1,   144452, 9c0155cdd0a5ae42b79475ab47ba87f7
0,         40,         40,        1,   144532, eefee218d181e74a80a1d2ec27932e91
0,         41,         41,        1,   144348, fbd4fd20565350dd927005af590912ff
0,         42,         42,        1,   144332, eac5c49230fb807c81e8a0c9e9721697
0,         43,         43,        1,   144428, 9ee3fe8be6c4477b0d8ff1d91049634e
0,         44,         44,        1,   144480, b58fb19549e4497e82491a26d67c1567
0,         45,         45,        1,   144596, 1c8059bf14f4df3da9db6b89f87a52b9
0,         46,         46,        1,   144592, db8a5750beb049ea835895d23e924cab
0,         47,         47,        1,   144512, 58c69889edb9bdab219d698f6a44d2cf
0,         48,         48,        1,   144468, 3da8e5ae1f1ff9da72abd3d2ac87a7b9
0,         49,         49,        1,   144500, 4f80ccdb6f9549190ed72407dd7af2c1
